<svg width="300" height="300" viewBox="0 0 300 300" fill="none" xmlns="http://www.w3.org/2000/svg">
<path d="M175 28.3691V80.0009C175 87.0016 175 90.5019 176.362 93.1758C177.561 95.5278 179.473 97.4401 181.825 98.6385C184.499 100.001 187.999 100.001 195 100.001H246.632M200 162.5H100M200 212.5H100M125 112.5H100M175 25H110C88.998 25 78.497 25 70.4754 29.0873C63.4193 32.6825 57.6825 38.4193 54.0873 45.4754C50 53.497 50 63.998 50 85V215C50 236.002 50 246.503 54.0873 254.525C57.6825 261.581 63.4193 267.317 70.4754 270.913C78.497 275 88.998 275 110 275H190C211.002 275 221.503 275 229.525 270.913C236.581 267.317 242.317 261.581 245.913 254.525C250 246.503 250 236.002 250 215V100L175 25Z" stroke="#181818" stroke-width="9" stroke-linecap="round" stroke-linejoin="round"/>
</svg>
