<svg width="300" height="300" viewBox="0 0 300 300" fill="none" xmlns="http://www.w3.org/2000/svg">
<path d="M162.5 87.5L148.556 59.6115C144.543 51.585 142.536 47.5716 139.542 44.6395C136.895 42.0466 133.704 40.0747 130.201 38.8664C126.24 37.5 121.753 37.5 112.779 37.5H65C50.9987 37.5 43.998 37.5 38.6502 40.2248C33.9462 42.6217 30.1217 46.4462 27.7248 51.1502C25 56.498 25 63.4987 25 77.5V87.5M25 87.5H215C236.002 87.5 246.503 87.5 254.525 91.5873C261.581 95.1825 267.317 100.919 270.913 107.975C275 115.997 275 126.498 275 147.5V202.5C275 223.502 275 234.003 270.913 242.025C267.317 249.081 261.581 254.817 254.525 258.413C246.503 262.5 236.002 262.5 215 262.5H85C63.998 262.5 53.497 262.5 45.4754 258.413C38.4193 254.817 32.6825 249.081 29.0873 242.025C25 234.003 25 223.502 25 202.5V87.5ZM150 218.75C150 218.75 187.5 200.876 187.5 174.065V142.786L160.155 133.015C153.585 130.662 146.4 130.662 139.83 133.015L112.5 142.786V174.065C112.5 200.876 150 218.75 150 218.75Z" stroke="#181818" stroke-width="9" stroke-linecap="round" stroke-linejoin="round"/>
</svg>
