<svg width="300" height="300" viewBox="0 0 300 300" fill="none" xmlns="http://www.w3.org/2000/svg">
<path d="M256.25 90.9719L150 150M150 150L43.7496 90.9719M150 150L150 268.75M262.5 200.732V99.2681C262.5 94.985 262.5 92.8435 261.869 90.9335C261.311 89.2438 260.398 87.6928 259.192 86.3842C257.829 84.905 255.957 83.865 252.213 81.7849L159.713 30.396C156.168 28.4266 154.395 27.4418 152.518 27.0558C150.857 26.7141 149.143 26.7141 147.482 27.0558C145.605 27.4418 143.832 28.4266 140.287 30.3961L47.7871 81.785C44.0431 83.865 42.1711 84.905 40.8079 86.3842C39.602 87.6928 38.6893 89.2439 38.1311 90.9336C37.5 92.8436 37.5 94.9851 37.5 99.2681V200.732C37.5 205.015 37.5 207.157 38.1311 209.066C38.6893 210.756 39.602 212.307 40.8079 213.616C42.1711 215.095 44.0431 216.135 47.7872 218.215L140.287 269.604C143.832 271.573 145.605 272.558 147.482 272.944C149.143 273.286 150.857 273.286 152.518 272.944C154.395 272.558 156.168 271.573 159.713 269.604L252.213 218.215C255.957 216.135 257.829 215.095 259.192 213.616C260.398 212.307 261.311 210.756 261.869 209.066C262.5 207.157 262.5 205.015 262.5 200.732Z" stroke="#181818" stroke-width="9" stroke-linecap="round" stroke-linejoin="round"/>
<path d="M206.25 118.75L93.75 56.25" stroke="#181818" stroke-width="9" stroke-linecap="round" stroke-linejoin="round"/>
</svg>
