<svg width="300" height="300" viewBox="0 0 300 300" fill="none" xmlns="http://www.w3.org/2000/svg">
<path d="M225 25L275 75M25 275L40.955 216.498C41.9959 212.682 42.5164 210.773 43.3154 208.994C44.0248 207.413 44.8965 205.911 45.9165 204.511C47.0652 202.935 48.4639 201.536 51.2613 198.739L180.429 69.5711C182.904 67.096 184.142 65.8584 185.569 65.3947C186.824 64.9869 188.176 64.9869 189.431 65.3947C190.858 65.8584 192.096 67.096 194.571 69.5711L230.429 105.429C232.904 107.904 234.142 109.142 234.605 110.569C235.013 111.824 235.013 113.176 234.605 114.431C234.142 115.858 232.904 117.096 230.429 119.571L101.261 248.739C98.4639 251.536 97.0652 252.935 95.4885 254.084C94.0886 255.103 92.5865 255.975 91.0064 256.685C89.2268 257.484 87.3185 258.004 83.5017 259.045L25 275Z" stroke="#181818" stroke-width="7" stroke-linecap="round" stroke-linejoin="round"/>
</svg>
