<svg width="300" height="300" viewBox="0 0 300 300" fill="none" xmlns="http://www.w3.org/2000/svg">
<path d="M262.5 75H222.5C201.498 75 190.997 75 182.975 79.0873C175.919 82.6825 170.183 88.4193 166.587 95.4754C162.5 103.497 162.5 113.998 162.5 135V150M262.5 75L225 37.5M262.5 75L225 112.5M125 37.5H97.5C76.498 37.5 65.997 37.5 57.9754 41.5873C50.9193 45.1825 45.1825 50.9193 41.5873 57.9754C37.5 65.997 37.5 76.498 37.5 97.5V202.5C37.5 223.502 37.5 234.003 41.5873 242.025C45.1825 249.081 50.9193 254.817 57.9754 258.413C65.997 262.5 76.498 262.5 97.5 262.5H202.5C223.502 262.5 234.003 262.5 242.025 258.413C249.081 254.817 254.817 249.081 258.413 242.025C262.5 234.003 262.5 223.502 262.5 202.5V175" stroke="#181818" stroke-width="7" stroke-linecap="round" stroke-linejoin="round"/>
</svg>
