<svg width="300" height="300" viewBox="0 0 300 300" fill="none" xmlns="http://www.w3.org/2000/svg">
<path d="M87.5 137.5V100C87.5 65.4822 115.482 37.5 150 37.5C180.237 37.5 205.459 58.972 211.25 87.5M110 262.5H190C211.002 262.5 221.503 262.5 229.525 258.413C236.581 254.817 242.317 249.081 245.913 242.025C250 234.003 250 223.502 250 202.5V197.5C250 176.498 250 165.997 245.913 157.975C242.317 150.919 236.581 145.183 229.525 141.587C221.503 137.5 211.002 137.5 190 137.5H110C88.998 137.5 78.497 137.5 70.4754 141.587C63.4193 145.183 57.6825 150.919 54.0873 157.975C50 165.997 50 176.498 50 197.5V202.5C50 223.502 50 234.003 54.0873 242.025C57.6825 249.081 63.4193 254.817 70.4754 258.413C78.497 262.5 88.998 262.5 110 262.5Z" stroke="#181818" stroke-width="7" stroke-linecap="round" stroke-linejoin="round"/>
</svg>
