<svg width="300" height="300" viewBox="0 0 300 300" fill="none" xmlns="http://www.w3.org/2000/svg">
<path d="M66.4537 242.98C74.0578 225.065 91.8115 212.5 112.5 212.5H187.5C208.188 212.5 225.942 225.065 233.546 242.98M200 118.75C200 146.364 177.614 168.75 150 168.75C122.386 168.75 100 146.364 100 118.75C100 91.1358 122.386 68.75 150 68.75C177.614 68.75 200 91.1358 200 118.75ZM275 150C275 219.036 219.036 275 150 275C80.9644 275 25 219.036 25 150C25 80.9644 80.9644 25 150 25C219.036 25 275 80.9644 275 150Z" stroke="#181818" stroke-width="9" stroke-linecap="round" stroke-linejoin="round"/>
</svg>
