<svg width="300" height="300" viewBox="0 0 300 300" fill="none" xmlns="http://www.w3.org/2000/svg">
<path d="M50.0003 272.718C57.5325 275 67.7061 275 85 275H215C232.294 275 242.467 275 250 272.718M50.0003 272.718C48.3853 272.229 46.8917 271.634 45.4754 270.913C38.4193 267.317 32.6825 261.581 29.0873 254.525C25 246.503 25 236.002 25 215V85C25 63.998 25 53.497 29.0873 45.4754C32.6825 38.4193 38.4193 32.6825 45.4754 29.0873C53.497 25 63.998 25 85 25H215C236.002 25 246.503 25 254.525 29.0873C261.581 32.6825 267.317 38.4193 270.913 45.4754C275 53.497 275 63.998 275 85V215C275 236.002 275 246.503 270.913 254.525C267.317 261.581 261.581 267.317 254.525 270.913C253.108 271.634 251.615 272.229 250 272.718M50.0003 272.718C50.0044 262.601 50.0651 257.248 50.9607 252.745C54.9061 232.911 70.411 217.406 90.2455 213.461C95.0754 212.5 100.884 212.5 112.5 212.5H187.5C199.116 212.5 204.925 212.5 209.755 213.461C229.589 217.406 245.094 232.911 249.039 252.745C249.935 257.248 249.996 262.601 250 272.718M200 118.75C200 146.364 177.614 168.75 150 168.75C122.386 168.75 100 146.364 100 118.75C100 91.1358 122.386 68.75 150 68.75C177.614 68.75 200 91.1358 200 118.75Z" stroke="#181818" stroke-width="9" stroke-linecap="round" stroke-linejoin="round"/>
</svg>
